# Alias OBJ Model File
# Exported from SketchUp, (c) 2000-2012 Trimble Navigation Limited
# File units = inches

mtllib Model0.mtl

g Mesh1 Model

usemtl _1
v 2 1 -0
vt 3.0046 -0.0927659
vn 0 0 1
v 0 0 -0
vt 2.14912 -0.520504
v 0 -3 -0
vt 2.14912 -1.80372
v 2 -3 -0
vt 3.0046 -1.80372
f 1/1/1 2/2/1 3/3/1 4/4/1 

usemtl _
v 2 1 -2
vt 3 3
vn -0.447214 0.894427 -0
v 0 0 -2
vt 0.763932 3
vt 0.763932 1
vt 3 1
f 5/5/2 6/6/2 2/7/2 1/8/2 

usemtl _1
vt 12.4148 -0.520504
vn 0 0 -1
vt 11.5594 -0.0927666
v 2 -3 -2
vt 11.5594 -1.80372
v 0 -3 -2
vt 12.4148 -1.80372
f 6/9/3 5/10/3 7/11/3 8/12/3 

v 2 1 -4
vt 10.7039 -0.0927665
vn -1 0 -0
v 2 -3 -4
vt 10.7039 -1.80372
f 9/13/4 10/14/4 7/11/4 5/10/4 

v 8 1 -4
vt 8.13745 -0.0927662
v 8 -3 -4
vt 8.13745 -1.80372
f 11/15/3 12/16/3 10/14/3 9/13/3 

v 8 1 2
vt 5.57102 -0.0927659
vn 1 0 -0
v 8 -3 2
vt 5.57102 -1.80372
f 13/17/5 14/18/5 12/16/5 11/15/5 

v 2 1 2
v 2 -3 2
f 15/1/1 16/4/1 14/18/1 13/17/1 

vt 2.14912 -0.0927658
f 1/19/4 4/3/4 16/4/4 15/1/4 

usemtl FrontColor
vt 0 2
vn 0 -1 -0
vt -2 2
vt -2 4
vt -8 4
vt -8 -2
vt -2 -2
vt -2 0
vt 0 0
f 8/20/6 7/21/6 10/22/6 12/23/6 14/24/6 16/25/6 4/26/6 3/27/6 

usemtl _1
vt 1.29365 -0.520504
vt 1.29365 -1.80372
f 2/2/4 6/28/4 8/29/4 3/3/4 

usemtl _
vt 3 -1
vn 0 1 -0
v 4 1 1
vt 5 0
f 15/30/7 17/31/7 1/8/7

vt 9 -1
f 17/31/7 15/30/7 13/32/7

v 4.75 1 1
vt 5.75 0
f 17/31/7 13/32/7 18/33/7

v 4.75 1 -0
vt 5.75 1
f 18/33/7 13/32/7 19/34/7

v 6 1 -0
vt 7 1
f 19/34/7 13/32/7 20/35/7

v 6 1 -2
vt 7 3
f 20/35/7 13/32/7 21/36/7

vt 9 5
f 11/37/7 21/36/7 13/32/7

v 4 1 -2
vt 5 3
f 11/37/7 22/38/7 21/36/7

vt 3 5
f 9/39/7 22/38/7 11/37/7

f 22/38/7 9/39/7 17/31/7

f 5/5/7 17/31/7 9/39/7

f 1/8/7 17/31/7 5/5/7

v 4 1 -0
vt 5 1
f 22/38/7 17/31/7 23/40/7

v 6 2.33333 -0
vn -0.5547 0.83205 -0
v 6 2.33333 1
vt 7 0
f 24/35/8 23/40/8 17/31/8 25/41/8 

usemtl _2
vt 5 -0.5
v 6 7.16667 -0
vt 8.625 -0.499999
v 4 5.83333 -0
vt 7.625 1
vt 4 1
f 24/42/1 26/43/1 27/44/1 23/45/1 

v 6 3.66667 -2
vt 6 -2
v 6 7.16667 -2
vt 8.625 -2
f 28/46/5 29/47/5 26/43/5 24/42/5 

v 4 5 -2
vt 7 -3.5
v 4 7.66667 -2
vt 9 -3.5
v 7 7.66667 -2
vt 9 -1.25
v 7 7.16667 -2
vt 8.625 -1.25
f 29/47/3 28/46/3 30/48/3 31/49/3 32/50/3 33/51/3 

usemtl _
vn 0.5547 0.83205 -0
v 6 3.66667 -3
vt 7 4
v 4 5 -3
vt 5 4
f 30/38/9 28/36/9 34/52/9 35/53/9 

v 7 3.66667 -2
vt 8 3
v 7 3.66667 -3
vt 8 4
f 28/36/7 36/54/7 37/55/7 34/52/7 

vn 0 0.83205 0.5547
v 7 2.33333 -0
vt 8 1
f 28/36/10 24/35/10 38/56/10 36/54/10 

v 7 2.33333 1
vt 8 0
f 24/35/7 25/41/7 39/57/7 38/56/7 

usemtl _2
vt 4 0.4375
v 6 1.83333 1
vt 4.625 -0.5
v 7 1.83333 1
vt 4.625 -1.25
vt 5 -1.25
f 17/45/1 18/58/1 40/59/1 41/60/1 39/61/1 25/42/1 

vt 6.6302 4
vn 0.5547 -0.83205 -0
v 6 1.83333 -0
vt 7.75694 4
vt 7.75694 4.75
vt 6.6302 4.75
f 19/62/11 42/63/11 40/64/11 18/65/11 

vt 4 -0.5
f 20/66/1 42/59/1 19/58/1

vt 4 -2
v 6 3.16667 -2
vt 5.625 -2
f 21/67/5 43/68/5 42/59/5 20/66/5 

vt 4 -3.5
v 4 4.5 -2
vt 6.625 -3.5
f 22/69/3 44/70/3 43/68/3 21/67/3 

vt 6.625 2.5
vt 4 2.5
f 23/45/4 27/44/4 44/71/4 22/72/4 

vt 3.87404 -2
vn 0 -0.83205 0.5547
vt 5.67681 -2
v 3 5.83333 -0
vt 5.67681 -1.25
v 3 4.5 -2
vt 3.87404 -1.25
f 44/73/12 27/74/12 45/75/12 46/76/12 

vt 3.25 6.25
vt 3.25 7
v 4 5.83333 1
vt 2.5 7
v 3 5.83333 1
vt 2.5 6.25
f 45/77/6 27/78/6 47/79/6 48/80/6 

vt 8.17296 4
vt 9.97573 4
v 6 7.16667 1
vt 9.97573 4.75
vt 8.17296 4.75
f 27/81/11 26/82/11 49/83/11 47/84/11 

vt 2.5 4
vt 3.25 4
v 7 7.16667 -0
vt 3.25 4.75
v 7 7.16667 1
vt 2.5 4.75
f 49/85/6 26/86/6 50/87/6 51/88/6 

vt 4.75 4
vt 4.75 4.75
f 26/86/6 29/89/6 33/90/6 50/87/6 

vt 8.625 0.250001
vt 9 -2
v 7 7.66667 1
vt 9 0.250002
f 51/91/5 50/43/5 33/47/5 32/92/5 52/93/5 

usemtl _
v 4 7.66667 -0
v 6 7.66667 -0
v 6 7.66667 1
f 53/40/7 54/35/7 55/41/7 52/57/7 32/54/7 31/38/7 

usemtl _2
vt 9 1
v 4 6.33333 -0
vt 9 -0.499998
f 53/94/1 56/56/1 54/95/1

vt 9 2.5
vt 7 2.5
f 31/96/4 30/97/4 56/56/4 53/94/4 

usemtl _
vn 0 0.83205 -0.5547
v 3 5 -2
vt 4 3
v 3 6.33333 -0
f 56/40/13 30/38/13 57/98/13 58/45/13 

v 3 5 -3
vt 4 4
f 30/38/7 35/53/7 59/99/7 57/98/7 

usemtl _2
v 6 3.16667 -3
v 4 4.5 -3
v 3 4.5 -3
vt 6.625 -4.25
vt 7 -4.25
f 34/46/3 60/68/3 61/70/3 62/100/3 59/101/3 35/48/3 

v 7 3.16667 -3
vt 5.625 -1.25
vt 6 -1.25
f 63/102/3 60/68/3 34/46/3 37/103/3 

v 7 3.16667 -2
vt 4.75 -1.25
vt 4.75 -2
vt 5.5 -2
vt 5.5 -1.25
f 64/104/6 43/105/6 60/106/6 63/107/6 

vt 4.01271 4
vn 0 -0.83205 -0.5547
vt 5.81549 4
vt 5.81549 4.75
v 7 1.83333 -0
vt 4.01271 4.75
f 42/108/14 43/109/14 64/110/14 65/111/14 

vt 5.625 -2.75
vt 6 -2.75
f 38/42/5 65/59/5 64/68/5 63/112/5 37/113/5 36/46/5 

vt 4.625 0.25
vt 5 0.25
f 41/114/5 65/59/5 38/42/5 39/115/5 

f 40/85/6 42/86/6 65/87/6 41/88/6 

vt 0.823188 -5
vn -0.5547 -0.83205 -0
vt 2.62596 -5
vt 2.62596 -4.25
vt 0.823188 -4.25
f 43/116/15 44/117/15 61/118/15 60/119/15 

vt 5.5 4
vt 4.75 3.25
vt 5.5 3.25
f 61/120/6 44/89/6 46/121/6 62/122/6 

vt 6.625 3.25
vt 7 3.25
f 62/123/4 46/71/4 57/97/4 59/124/4 

vt 7.625 0.25
v 3 6.33333 1
vt 8 0.25
f 57/97/4 46/71/4 45/44/4 48/125/4 66/126/4 58/56/4 

vt 7.625 1.75
v 4 6.33333 1
vt 8 1.75
f 48/127/1 47/44/1 67/56/1 66/128/1 

f 67/56/1 47/44/1 49/43/1 51/51/1 52/50/1 55/95/1 

usemtl _
f 54/35/8 56/40/8 67/31/8 55/41/8 

vt 4 0
f 56/40/7 58/45/7 66/129/7 67/31/7 

